HIERARCHY
ROOT SpineBase
{
  OFFSET 0.000000 0.000000 0.000000
  CHANNELS 6 Xposition Yposition Zposition Zrotation Xrotation Yrotation
  JOINT SpineMid
  {
    OFFSET 0.000000 29.980525 0.000000
    CHANNELS 3 Zrotation Xrotation Yrotation
    JOINT SpineShoulder
    {
      OFFSET -0.044756 22.224219 -0.688684
      CHANNELS 3 Zrotation Xrotation Yrotation
      JOINT Neck
      {
        OFFSET -0.022741 7.337536 -0.540096
        CHANNELS 3 Zrotation Xrotation Yrotation
        JOINT Head
        {
          OFFSET -3.210302 12.818528 -1.300240
          CHANNELS 3 Zrotation Xrotation Yrotation
          End Site
          {
            OFFSET 0 0 0
          }
        }
      }
      JOINT ShoulderLeft
      {
        OFFSET -16.645140 -2.878955 5.875282
        CHANNELS 3 Zrotation Xrotation Yrotation
        JOINT ElbowLeft
        {
          OFFSET -3.665947 -22.620401 3.929862
          CHANNELS 3 Zrotation Xrotation Yrotation
          JOINT WristLeft
          {
            OFFSET 3.110264 -11.302655 -26.123911
            CHANNELS 3 Zrotation Xrotation Yrotation
            JOINT HandLeft
            {
              OFFSET -0.167071 -4.003798 -0.187725
              CHANNELS 3 Zrotation Xrotation Yrotation
              JOINT HandTipLeft
              {
                OFFSET -2.136988 -5.548747 -2.030433
                CHANNELS 3 Zrotation Xrotation Yrotation
                End Site
                {
                  OFFSET 0 0 0
                }
              }
              JOINT ThumbLeft
              {
                OFFSET -5.594395 1.325332 -3.148582
                CHANNELS 3 Zrotation Xrotation Yrotation
                End Site
                {
                  OFFSET 0 0 0
                }
              }
            }
          }
        }
      }
      JOINT ShoulderRight
      {
        OFFSET 14.623933 -3.142675 -6.861820
        CHANNELS 3 Zrotation Xrotation Yrotation
        JOINT ElbowRight
        {
          OFFSET 8.353796 -22.069351 -2.726601
          CHANNELS 3 Zrotation Xrotation Yrotation
          JOINT WristRight
          {
            OFFSET -15.611795 -16.451568 -7.655035
            CHANNELS 3 Zrotation Xrotation Yrotation
            JOINT HandRight
            {
              OFFSET -5.524175 -4.103668 3.777809
              CHANNELS 3 Zrotation Xrotation Yrotation
              JOINT HandTipRight
              {
                OFFSET -4.074354 -1.771980 -0.685190
                CHANNELS 3 Zrotation Xrotation Yrotation
                End Site
                {
                  OFFSET 0 0 0
                }
              }
              JOINT ThumbRight
              {
                OFFSET -6.190265 4.919121 -6.311144
                CHANNELS 3 Zrotation Xrotation Yrotation
                End Site
                {
                  OFFSET 0 0 0
                }
              }
            }
          }
        }
      }
    }
  }
  JOINT HipLeft
  {
    OFFSET -6.422272 0.140237 -1.261777
    CHANNELS 3 Zrotation Xrotation Yrotation
    JOINT KneeLeft
    {
      OFFSET 0.066814 -38.079925 7.683381
      CHANNELS 3 Zrotation Xrotation Yrotation
      JOINT AnkleLeft
      {
        OFFSET 4.991118 -35.140667 8.460660
        CHANNELS 3 Zrotation Xrotation Yrotation
        JOINT FootLeft
        {
          OFFSET -2.240675 -7.146661 -8.442116
          CHANNELS 3 Zrotation Xrotation Yrotation
          End Site
          {
            OFFSET 0 0 0
          }
        }
      }
    }
  }
  JOINT HipRight
  {
    OFFSET 6.365299 0.942178 -5.870802
    CHANNELS 3 Zrotation Xrotation Yrotation
    JOINT KneeRight
    {
      OFFSET 6.177601 -39.618535 -1.089350
      CHANNELS 3 Zrotation Xrotation Yrotation
      JOINT AnkleRight
      {
        OFFSET 4.423115 -35.674058 2.394862
        CHANNELS 3 Zrotation Xrotation Yrotation
        JOINT FootRight
        {
          OFFSET -2.526678 -7.529279 -6.316167
          CHANNELS 3 Zrotation Xrotation Yrotation
          End Site
          {
            OFFSET 0 0 0
          }
        }
      }
    }
  }
}
MOTION
Frames: 16
Frame Time: 0.033333
3.416632 82.424469 381.406051 -0.000000 0.000000 19.820689 -0.000000 0.000000 -19.820689 -0.000000 0.000000 0.000000 -0.000000 0.000000 0.000000 0.000000 0.000000 0.000000 -0.000000 0.000000 0.000000 -0.000000 0.000000 0.000000 -0.000000 0.000000 0.000000 -0.000000 0.000000 0.000000 0.000000 0.000000 0.000000 0.000000 0.000000 0.000000 -0.000000 0.000000 0.000000 -0.000000 0.000000 0.000000 -0.000000 0.000000 0.000000 -0.000000 0.000000 0.000000 0.000000 0.000000 0.000000 0.000000 0.000000 0.000000 -0.000000 0.000000 -19.820689 -0.000000 0.000000 0.000000 -0.000000 0.000000 0.000000 0.000000 0.000000 0.000000 -0.000000 0.000000 -19.820689 -0.000000 0.000000 0.000000 -0.000000 0.000000 0.000000 0.000000 0.000000 0.000000
3.400843 82.429393 381.440612 -0.013535 0.028048 19.647306 0.003316 -0.030966 -19.647302 -0.000000 0.000000 0.000000 -0.000000 0.000000 0.000000 0.000000 0.000000 0.000000 -0.000000 0.000000 0.000000 -0.000000 0.000000 0.000000 -0.000000 0.000000 0.000000 -0.172136 -0.903304 0.410473 0.000000 0.000000 0.000000 0.000000 0.000000 0.000000 -0.000000 0.000000 0.000000 -0.000000 0.000000 0.000000 0.798857 -0.221193 1.042641 3.452199 -0.833883 -0.321997 0.000000 0.000000 0.000000 0.000000 0.000000 0.000000 0.003316 -0.030966 -19.647302 -0.000000 0.000000 0.000000 -0.000000 0.000000 0.000000 0.000000 0.000000 0.000000 0.003316 -0.030966 -19.647302 -0.000000 0.000000 0.000000 0.150724 1.481441 -0.619111 0.000000 0.000000 0.000000
3.389306 82.432150 381.472509 -0.026539 0.052864 19.501762 0.007368 -0.058691 -19.501746 -0.000000 0.000000 0.000000 -0.000000 0.000000 0.000000 0.000000 0.000000 0.000000 -0.000000 0.000000 0.000000 -0.000000 0.000000 0.000000 1.233640 0.946739 -0.107550 -1.769632 -2.655384 0.927860 0.000000 0.000000 0.000000 0.000000 0.000000 0.000000 -0.000000 0.000000 0.000000 -0.000000 0.000000 0.000000 1.351197 -0.324532 1.707183 5.990540 -1.494984 -0.532708 0.000000 0.000000 0.000000 0.000000 0.000000 0.000000 0.007368 -0.058691 -19.501746 -0.000000 0.000000 0.000000 -0.000000 0.000000 0.000000 0.000000 0.000000 0.000000 0.007368 -0.058691 -19.501746 -0.000000 0.000000 0.000000 0.172653 3.118615 -1.170168 0.000000 0.000000 0.000000
3.382024 82.432739 381.501743 -0.039016 0.074458 19.384306 0.012092 -0.083186 -19.384272 -0.000000 0.000000 0.000000 -0.000000 0.000000 0.000000 0.000000 0.000000 0.000000 -0.000000 0.000000 0.000000 -0.000000 0.000000 0.000000 1.837379 1.804507 -0.190386 -2.930497 -4.194429 1.400897 0.000000 0.000000 0.000000 0.000000 0.000000 0.000000 -0.000000 0.000000 0.000000 -0.000000 0.000000 0.000000 1.665309 -0.322615 2.006005 7.513649 -1.901176 -0.696814 0.000000 0.000000 0.000000 0.000000 0.000000 0.000000 0.012092 -0.083186 -19.384272 -0.000000 0.000000 0.000000 -0.000000 0.000000 0.000000 0.000000 0.000000 0.000000 0.012092 -0.083186 -19.384272 -0.000000 0.000000 0.000000 0.072359 4.902008 -1.650776 0.000000 0.000000 0.000000
3.378994 82.431160 381.528314 -0.050971 0.092838 19.295132 0.017431 -0.104465 -19.295074 -0.000000 0.000000 0.000000 -0.000000 0.000000 0.000000 0.000000 0.000000 0.000000 -0.000000 0.000000 0.000000 -0.000000 0.000000 0.000000 2.418406 2.906543 -0.295990 -4.250338 -5.835509 1.836220 0.000000 0.000000 0.000000 0.000000 0.000000 0.000000 -0.000000 0.000000 0.000000 -0.000000 0.000000 0.000000 1.745001 -0.220287 1.942662 7.987942 -2.015173 -0.846923 0.000000 0.000000 0.000000 0.000000 0.000000 0.000000 0.017431 -0.104465 -19.295074 -0.000000 0.000000 0.000000 -0.000000 0.000000 0.000000 0.000000 0.000000 0.000000 0.017431 -0.104465 -19.295074 0.067217 -0.920262 -0.108984 -0.227058 7.740388 -1.944253 0.000000 0.000000 0.000000
3.380217 82.427413 381.552221 -0.062407 0.108011 19.234380 0.023341 -0.122540 -19.234296 -0.000000 0.000000 0.000000 -0.000000 0.000000 0.000000 0.000000 0.000000 0.000000 -0.000000 0.000000 0.000000 -0.000000 0.000000 0.000000 2.967012 4.231549 -0.425158 -5.699929 -7.545327 2.199983 0.000000 0.000000 0.000000 0.000000 0.000000 0.000000 -0.000000 0.000000 0.000000 0.372839 0.494717 -0.645252 1.222013 -0.495810 2.166940 7.422685 -1.834763 -0.979113 0.000000 0.000000 0.000000 0.000000 0.000000 0.000000 0.023341 -0.122540 -19.234296 -0.000000 0.000000 0.000000 -0.294273 -0.801690 0.601394 0.000000 0.000000 0.000000 0.023341 -0.122540 -19.234296 0.067885 -1.021367 -0.121396 -0.564176 9.881565 -2.253870 0.000000 0.000000 0.000000
3.365481 82.430842 381.560519 -0.103978 0.123362 19.222998 0.057564 -0.150718 -19.222810 -0.000000 0.000000 0.000000 -0.000000 0.000000 0.000000 0.000000 0.000000 0.000000 -0.000000 0.000000 0.000000 -0.000000 0.000000 0.000000 4.727872 6.412872 -0.753997 -6.640135 -9.185702 1.727835 0.000000 0.000000 0.000000 0.000000 0.000000 0.000000 -0.000000 0.000000 0.000000 0.292341 0.580623 -0.688535 2.125510 0.021780 2.196859 4.694911 -2.199966 -0.524313 0.000000 0.000000 0.000000 0.000000 0.000000 0.000000 0.057564 -0.150718 -19.222810 -0.000000 0.000000 0.000000 0.310165 -1.965755 0.260818 0.000000 0.000000 0.000000 0.057564 -0.150718 -19.222810 0.057564 -1.071158 -0.128322 -0.384023 9.722439 -2.335050 0.000000 0.000000 0.000000
3.378648 82.422689 381.569100 -0.120280 0.141802 19.262534 0.066767 -0.173544 -19.262284 -0.000000 0.000000 0.000000 -0.000000 0.000000 0.000000 0.000000 0.000000 0.000000 -0.000000 0.000000 0.000000 -0.000000 0.000000 0.000000 0.353260 8.458590 -0.394970 -7.055944 -11.710398 2.812912 0.000000 0.000000 0.000000 0.000000 0.000000 0.000000 -0.604045 -0.587400 -0.151213 0.675389 1.723907 -0.964107 1.769709 0.242485 1.013416 2.116010 -2.287139 0.927378 0.000000 0.000000 0.000000 0.000000 0.000000 0.000000 0.066767 -0.173544 -19.262284 -0.000000 0.000000 0.000000 1.572976 -7.435730 0.629614 0.000000 0.000000 0.000000 0.066767 -0.173544 -19.262284 0.086774 -1.049944 -0.123475 -0.598882 13.142405 -3.181102 0.000000 0.000000 0.000000
3.406296 82.395286 381.573355 -0.109492 0.168164 19.293899 0.047780 -0.194896 -19.293657 -0.000000 0.000000 0.000000 -0.000000 0.000000 0.000000 0.000000 0.000000 0.000000 -0.000000 0.000000 0.000000 -0.000000 0.000000 0.000000 -2.273985 8.988136 -0.090036 -4.955460 -15.132763 3.889146 0.000000 0.000000 0.000000 0.000000 0.000000 0.000000 -0.889727 -1.030810 -0.289448 0.999217 3.301428 -1.921324 -1.953999 -0.262457 -2.317460 -3.268818 2.434352 -3.590108 0.000000 0.000000 0.000000 0.000000 0.000000 0.000000 0.047780 -0.194896 -19.293657 -0.000000 0.000000 0.000000 2.261608 -8.256698 0.093052 0.000000 0.000000 0.000000 0.047780 -0.194896 -19.293657 0.080259 -0.849653 -0.099307 -2.038142 20.624916 -4.001106 0.000000 0.000000 0.000000
3.463660 82.358527 381.596482 -0.053707 0.183596 19.262483 -0.009867 -0.191035 -19.262413 -0.000000 0.000000 0.000000 0.013034 -0.796795 -0.197996 0.000000 0.000000 0.000000 -0.000000 0.000000 0.000000 0.419963 1.094576 -0.658260 2.175915 6.152027 0.110426 -7.404717 -12.136400 3.067761 0.000000 0.000000 0.000000 0.000000 0.000000 0.000000 -1.002841 -0.422154 -0.039740 2.492905 2.024066 -2.225068 -4.482889 0.085048 -2.980617 -4.021482 5.317974 -7.346461 0.000000 0.000000 0.000000 0.000000 0.000000 0.000000 -0.009867 -0.191035 -19.262413 -0.000000 0.000000 0.000000 1.061554 -4.060948 0.060065 0.000000 0.000000 0.000000 -0.009867 -0.191035 -19.262413 0.082136 -0.902834 -0.105715 -4.688997 21.465624 -1.822267 0.000000 0.000000 0.000000
3.539684 82.323985 381.650619 0.032993 0.176916 19.221368 -0.089398 -0.156191 -19.221541 -0.000000 0.000000 0.000000 -0.365424 -1.486583 -0.413916 0.000000 0.000000 0.000000 -0.000000 0.000000 0.000000 1.384921 5.811710 -1.490836 18.320012 5.185912 0.083105 -20.296079 -12.853163 0.413924 0.000000 0.000000 0.000000 0.000000 0.000000 0.000000 -0.873711 0.168118 0.173334 1.675152 1.824125 -2.444468 -5.962859 -1.263397 -3.682916 -6.918910 7.174077 -6.175260 0.000000 0.000000 0.000000 0.000000 0.000000 0.000000 -0.089398 -0.156191 -19.221541 -0.000000 0.000000 0.000000 0.077386 -2.659260 0.765421 0.000000 0.000000 0.000000 -0.089398 -0.156191 -19.221541 0.048156 -0.931969 -0.111863 -4.453706 21.917143 -2.102492 0.000000 0.000000 0.000000
3.631469 82.321618 381.753851 0.152377 0.100445 19.156313 -0.176900 -0.044881 -19.156516 -0.000000 0.000000 0.000000 -0.859095 -2.416184 -0.710270 0.000000 0.000000 0.000000 -0.000000 0.000000 0.000000 1.605264 7.948971 -1.400710 26.033216 6.782635 -0.454616 -21.753760 -13.757364 -2.568159 0.000000 0.000000 0.000000 0.000000 0.000000 0.000000 -0.565839 2.933432 1.193428 -1.487779 -0.591215 -2.439087 -7.642849 -3.730841 -5.694442 -3.242751 11.169267 -7.316463 0.000000 0.000000 0.000000 0.000000 0.000000 0.000000 -0.176900 -0.044881 -19.156516 -0.000000 0.000000 0.000000 -0.876075 -3.319850 2.117855 0.000000 0.000000 0.000000 -0.087702 1.001127 -18.991484 0.224872 -1.966298 -0.283742 -2.136635 18.118016 -3.114667 0.000000 0.000000 0.000000
3.718922 82.341850 381.900812 0.249921 -0.053863 19.105007 -0.218527 0.132695 -19.104636 -0.000000 0.000000 0.000000 -1.379347 -3.380408 -1.027462 0.000000 0.000000 0.000000 0.516446 2.026772 -0.248859 1.037163 6.297628 -0.981036 34.393834 6.016556 -0.537720 -19.201131 -5.050120 -9.161377 0.000000 0.000000 0.000000 0.000000 0.000000 0.000000 -0.374864 7.025764 2.714353 -7.193139 -4.432619 -2.186127 -8.208634 -5.989627 -9.395823 -1.467568 14.313751 -4.592503 0.000000 0.000000 0.000000 0.000000 0.000000 0.000000 -0.218527 0.132695 -19.104636 -0.000000 0.000000 0.000000 -0.960455 -4.688730 2.688613 0.000000 0.000000 0.000000 -0.176387 1.487505 -18.892308 0.326632 -2.228159 -0.330875 -3.475686 22.827655 -3.097674 0.000000 0.000000 0.000000
3.791637 82.377008 382.099884 0.373837 -0.218173 18.959287 -0.282678 0.327791 -18.957767 -0.000000 0.000000 0.000000 -2.036503 -4.590069 -1.438862 0.000000 0.000000 0.000000 1.052939 2.659242 -0.274064 0.086778 4.182167 -0.479558 40.561832 6.351280 -1.804626 -11.849790 6.463423 -20.214197 0.000000 0.000000 0.000000 0.000000 0.000000 0.000000 -0.843167 12.246519 4.794942 -15.240321 -9.859060 -2.104861 -5.528823 -6.044349 -14.813504 -2.965727 11.330750 6.451364 0.000000 0.000000 0.000000 0.000000 0.000000 0.000000 -0.155535 1.363899 -19.001588 0.217153 -1.021044 0.043879 -0.531588 -7.395000 3.150546 0.000000 0.000000 0.000000 -0.234710 2.054431 -18.687429 0.404279 -2.513311 -0.381402 -2.583873 22.381593 -3.785405 0.000000 0.000000 0.000000
3.883761 82.453133 382.299612 0.361471 -0.574486 18.630687 -0.159015 0.659853 -18.627959 -0.280784 -1.055365 -0.026507 -2.558306 -4.865440 -1.847167 0.000000 0.000000 0.000000 1.829232 2.834180 -0.050681 -1.139537 1.812341 0.037395 44.293816 9.148438 -5.166949 -14.176541 20.573661 -29.459414 0.000000 0.000000 0.000000 0.000000 0.000000 0.000000 -2.246318 19.646942 7.787226 -25.882451 -16.382636 -3.501771 -1.123295 -4.621678 -22.376004 -1.683647 4.541999 21.231887 0.000000 0.000000 0.000000 0.000000 0.000000 0.000000 0.006616 1.959249 -18.681700 0.259344 -1.283978 0.052861 1.374574 -14.706363 3.779035 0.000000 0.000000 0.000000 -0.178055 2.771849 -18.297037 0.591220 -2.904872 -0.440334 -1.265216 17.201382 -3.610733 0.000000 0.000000 0.000000
3.970982 82.554382 382.491161 0.250434 -1.041312 18.236264 -0.752551 -0.015690 -18.243928 -0.061500 -0.591393 -0.029307 -3.140643 -5.176742 -2.215772 0.000000 0.000000 0.000000 2.675457 1.787020 0.357662 -2.595409 -0.559794 0.446311 41.085499 17.414571 -10.339291 -11.887789 24.387527 -31.638818 0.000000 0.000000 0.000000 0.000000 0.000000 0.000000 -5.559577 26.473142 11.638262 -37.744764 -20.605718 -7.183843 5.716238 -5.996651 -27.844682 1.267172 1.445537 29.696825 0.000000 0.000000 0.000000 0.000000 0.000000 0.000000 0.375189 2.610330 -18.283839 0.211433 -1.555117 0.042685 2.656992 -13.636232 1.731165 0.000000 0.000000 0.000000 -0.025498 3.492107 -17.852610 0.853985 -3.232397 -0.479003 0.832326 9.544321 -3.354381 0.000000 0.000000 0.000000
